<svg xmlns="http://www.w3.org/2000/svg" width="610" height="511.184" viewBox="0 0 610 511.184">
  <defs>
    <style>
      .cls-1 {
        fill: #707070;
        font-size: 150px;
        font-family: Lato-Bold, Lato;
        font-weight: 700;
      }

      .cls-2 {
        fill: none;
        stroke: #707070;
        stroke-width: 10px;
      }
    </style>
  </defs>
  <g id="post" transform="translate(5807 4955)">
    <text id="POST-2" data-name="POST" class="cls-1" transform="translate(-5695 -4641.74)"><tspan x="0" y="0">POST</tspan></text>
    <g id="Group_34" data-name="Group 34" transform="translate(-5802 -4950)">
      <g id="Group_33" data-name="Group 33">
        <path id="Union_6" data-name="Union 6" class="cls-2" d="M427.346,417.105a250.642,250.642,0,0,0-254.692,0,256.171,256.171,0,0,0-32.122,22.422,250.251,250.251,0,0,1-61.52-81.678q-3.029-6.434-5.693-13.044H0V164.683H69.6q2.168-6.1,4.643-12.072a250.584,250.584,0,0,1,52.5-79.417A247.92,247.92,0,0,1,163,42.678a243.586,243.586,0,0,1,41.617-23.04,241.02,241.02,0,0,1,190.757,0A243.56,243.56,0,0,1,437,42.678a247.959,247.959,0,0,1,36.262,30.516,250.584,250.584,0,0,1,52.5,79.417q2.474,5.966,4.643,12.072H600V344.805H526.682q-2.662,6.6-5.693,13.044a250.254,250.254,0,0,1-61.521,81.679A256.067,256.067,0,0,0,427.346,417.105Z" transform="translate(0 0)"/>
        <path id="Union_5" data-name="Union 5" class="cls-2" d="M249.611,434.45a240.259,240.259,0,0,1-45.988-14.56A243.505,243.505,0,0,1,162,396.849a247.9,247.9,0,0,1-36.261-30.515,250.593,250.593,0,0,1-52.5-79.417q-1.11-2.677-2.159-5.383H0V101.411H69.733q3.72-10.044,8.28-19.732A250.236,250.236,0,0,1,139.533,0a256.162,256.162,0,0,0,32.121,22.423A252.262,252.262,0,0,0,211.02,41.234,249.965,249.965,0,0,0,253.7,53.041,252.428,252.428,0,0,0,299,57.133a252.436,252.436,0,0,0,45.3-4.092A249.873,249.873,0,0,0,386.98,41.234a252.224,252.224,0,0,0,39.366-18.812A256.2,256.2,0,0,0,458.468,0a250.252,250.252,0,0,1,61.52,81.678q4.555,9.675,8.279,19.732H600V281.534H526.915q-1.049,2.706-2.159,5.383a250.611,250.611,0,0,1-52.5,79.417A247.86,247.86,0,0,1,436,396.849a243.531,243.531,0,0,1-41.617,23.041,241.871,241.871,0,0,1-144.769,14.56Z" transform="translate(0 60.473)"/>
      </g>
      <path id="Union_7" data-name="Union 7" class="cls-2" d="M226.607,393.995a363.087,363.087,0,0,1-18.8-61.542H0V163.174H207.592a363.5,363.5,0,0,1,19.015-62.567C243.448,59.341,267.216,24.651,295.5,0c28.283,24.651,52.052,59.341,68.893,100.607a363.506,363.506,0,0,1,19.015,62.567H590V332.453H383.191a363.088,363.088,0,0,1-18.8,61.542C347.551,435.262,323.783,469.95,295.5,494.6,267.216,469.95,243.448,435.262,226.607,393.995Z" transform="translate(5 4.949)"/>
    </g>
  </g>
</svg>
